# xmcd
#
# Track frame offsets: 
#        150
#        26779
#        101894
#        128406
#        165888
#        207690
#        228909
#        253201
#
# Disc length: 3678 seconds
#
# Revision: 7
# Processed by: cddbd v1.5.2PL0 Copyright (c) Steve Scherf et al.
# Submitted via: ExactAudioCopyFreeDBPlugin 1.0
#
DISCID=680e5c08
DTITLE=Paul Personne - Route 97 [CD02)
DYEAR=1997
DGENRE=Blues
TTITLE0=Loco loco
TTITLE1=Perdant blues
TTITLE2=Funambule déprim'
TTITLE3=Le bourdon
TTITLE4=Barjoland
TTITLE5=Lucy
TTITLE6=General Lee
TTITLE7=Ça va rouler
EXTD=Enregistré en public à l'Olympia de Paris les 1, 2 et 3 avril 199
EXTD=7 YEAR: 1997 ID3G: 0
EXTT0=
EXTT1=
EXTT2=
EXTT3=
EXTT4=
EXTT5=
EXTT6=
EXTT7=
PLAYORDER=
